PathFileType	4	(X/Y/Z)	D:\TRACE\spot_10-12-23\spot_arm_body_motion_1_7-platform.trc
DataRate	CameraRate	NumFrames	NumMarkers	Units	OrigDataRate	OrigDataStartFrame	OrigNumFrames
100.00	100.00	      24	5	mm	100.00	3501	      7000
Frame#	Time	Left_Front			Right_Front			Left_Aft			Right_Aft			Post			
		X1	Y1	Z1	X2	Y2	Z2	X3	Y3	Z3	X4	Y4	Z4	X5	Y5	Z5	

3501	35.000	-747.24011	11.80952	-651.06866	819.90729	9.94354	-626.56195	-678.66571	11.72487	487.40781	728.10498	9.66134	589.53790	40.34882	740.36078	-960.70923	
3502	35.010	-746.71082	11.60170	-651.21790	820.83917	9.80018	-626.66394	-678.25421	11.92172	487.42273	728.92688	9.88769	589.38898	41.18852	739.73987	-961.23297	
3503	35.020	-745.99658	11.37244	-651.37274	821.66974	9.50906	-626.73926	-677.43207	12.16717	487.30252	729.88281	10.26269	589.27081	41.90819	739.26007	-961.77063	
3504	35.030	-744.99469	11.00762	-651.41425	822.35632	9.23532	-626.81305	-676.49225	12.40588	487.19733	730.48907	10.61233	589.12976	42.84022	738.67773	-962.56049	
3505	35.040	-744.20624	10.59263	-651.49377	823.01776	8.56018	-626.79938	-675.78705	12.58086	487.08920	731.26270	11.07255	589.77600	43.08176	738.16656	-963.02625	
3506	35.050	-743.64276	10.15079	-651.44983	823.75702	8.51224	-627.02008	-675.11780	12.91462	487.06628	732.05383	11.35835	589.53357	44.39056	737.69604	-963.92139	
3507	35.060	-742.96490	9.61614	-651.58069	824.49548	8.10812	-627.11688	-674.38293	13.08478	486.94614	732.55286	11.57981	589.34351	45.06093	737.03674	-964.46259	
3508	35.070	-742.25842	9.13677	-651.72699	825.15692	7.59599	-627.16577	-673.75836	13.30842	486.77505	733.30255	11.76721	589.08777	45.72248	736.37952	-965.06299	
3509	35.080	-741.65857	8.87016	-651.81274	825.77948	7.25414	-627.28552	-673.11151	13.53972	486.69183	734.07501	12.14197	588.83624	46.44333	735.86163	-965.61462	
3510	35.090	-740.93372	8.49734	-651.81580	826.41895	7.01109	-627.34064	-672.52661	13.85354	486.55692	734.72992	12.57403	588.83203	47.06738	735.45227	-965.98358	
3511	35.100	-740.19727	8.17942	-651.87695	827.14020	6.61032	-627.38525	-671.86884	14.30175	486.51367	735.24487	12.88177	588.93597	47.87730	734.84680	-966.57959	
3512	35.110	-739.68085	7.90546	-652.00305	827.62061	6.23345	-627.45410	-671.30133	14.51438	486.46173	735.91980	13.12267	588.83575	48.47197	734.35535	-966.79016	
3513	35.120	-739.09711	7.46705	-652.09155	828.14874	5.97101	-627.55786	-670.78247	14.55226	486.34265	736.35071	13.35962	588.75891	48.96411	734.00555	-966.96985	
3514	35.130	-738.56915	7.17311	-652.13458	828.90314	5.55449	-627.54993	-670.23199	14.69894	486.31573	736.99896	13.60385	588.62427	49.51141	733.63263	-967.34906	
3515	35.140	-738.10559	6.98460	-652.21777	829.45386	5.28754	-627.68195	-669.63232	14.86062	486.28372	737.61322	13.97476	588.51813	50.12029	733.08093	-967.71497	
3516	35.150	-737.61334	6.73967	-652.22021	829.89728	5.04796	-627.77435	-668.93756	15.09302	486.23001	737.97351	14.27581	588.27277	50.73501	732.44403	-967.91376	
3517	35.160	-737.00598	6.36096	-652.27869	830.38959	4.73810	-627.78143	-668.46002	15.25535	486.12427	738.51062	14.39609	588.42657	51.21976	732.22943	-968.18030	
3518	35.170	-736.51617	5.78294	-652.33917	830.83209	4.33723	-627.80634	-667.94794	15.52577	486.06628	739.00623	14.65662	588.28827	51.67436	731.52850	-968.42645	
3519	35.180	-736.16425	5.34833	-652.38129	831.34808	3.80997	-627.91168	-667.54248	15.70401	486.00623	739.50104	14.92174	588.16498	52.35704	730.86682	-969.07611	
3520	35.190	-735.70398	4.97377	-652.44897	831.87885	3.47863	-628.02789	-667.08258	15.95860	485.86325	740.03864	15.39925	588.09729	52.83006	730.34808	-969.47186	
3521	35.200	-735.31531	4.73200	-652.59741	832.23810	3.21282	-628.10089	-666.68103	16.33198	485.77658	740.44092	15.55946	587.71301	52.67073	729.82434	-969.97015	
3522	35.210	-734.81989	4.40156	-652.77936	832.57404	2.95245	-628.17523	-666.21228	16.69101	485.75955	740.80225	15.86402	587.65497	53.05891	729.26465	-970.58252	
3523	35.220	-734.40601	3.92979	-652.93469	832.95721	2.49488	-628.25720	-665.91650	16.93076	485.69400	741.16223	16.14221	587.53510	54.25053	728.66040	-971.20758	
3524	35.230	-734.27155	3.54926	-652.94733	833.21924	2.07342	-628.35260	-665.71729	17.07421	485.63434	741.30878	16.35921	587.62451	53.39918	728.03406	-971.93994	
